<svg width="24" height="24" viewBox="0 0 24 24" fill="none" xmlns="http://www.w3.org/2000/svg">
<path d="M17.3333 8.66669H6.66659C5.93021 8.66669 5.33325 9.26364 5.33325 10V16.6667C5.33325 17.4031 5.93021 18 6.66659 18H17.3333C18.0696 18 18.6666 17.4031 18.6666 16.6667V10C18.6666 9.26364 18.0696 8.66669 17.3333 8.66669Z" stroke="#00CCB8" stroke-linecap="round" stroke-linejoin="round"/>
<path d="M14.6666 18V7.33333C14.6666 6.97971 14.5261 6.64057 14.2761 6.39052C14.026 6.14048 13.6869 6 13.3333 6H10.6666C10.313 6 9.97383 6.14048 9.72378 6.39052C9.47373 6.64057 9.33325 6.97971 9.33325 7.33333V18" stroke="#00CCB8" stroke-linecap="round" stroke-linejoin="round"/>
</svg>
