<svg width="24" height="24" viewBox="0 0 24 24" fill="none" xmlns="http://www.w3.org/2000/svg">
<g clip-path="url(#clip0_7_6090)">
<path d="M21.3332 5.33334H2.66658C2.31296 5.33334 1.97382 5.47382 1.72378 5.72387C1.47373 5.97392 1.33325 6.31306 1.33325 6.66668V17.3333C1.33325 17.687 1.47373 18.0261 1.72378 18.2762C1.97382 18.5262 2.31296 18.6667 2.66658 18.6667H21.3332C21.6869 18.6667 22.026 18.5262 22.2761 18.2762C22.5261 18.0261 22.6666 17.687 22.6666 17.3333V6.66668C22.6666 6.31306 22.5261 5.97392 22.2761 5.72387C22.026 5.47382 21.6869 5.33334 21.3332 5.33334ZM21.3332 17.3333H2.66658V6.66668H21.3332V17.3333Z" fill="#EEEEEE"/>
<path d="M4.66675 8.66666H6.00008V9.99999H4.66675V8.66666Z" fill="#EEEEEE"/>
<path d="M7.33325 8.66666H8.66658V9.99999H7.33325V8.66666Z" fill="#EEEEEE"/>
<path d="M10 8.66666H11.3333V9.99999H10V8.66666Z" fill="#EEEEEE"/>
<path d="M12.6667 8.66666H14.0001V9.99999H12.6667V8.66666Z" fill="#EEEEEE"/>
<path d="M15.3333 8.66666H16.6666V9.99999H15.3333V8.66666Z" fill="#EEEEEE"/>
<path d="M18 8.66666H19.3333V9.99999H18V8.66666Z" fill="#EEEEEE"/>
<path d="M4.66675 11.3333H6.00008V12.6667H4.66675V11.3333Z" fill="#EEEEEE"/>
<path d="M7.33325 11.3333H8.66658V12.6667H7.33325V11.3333Z" fill="#EEEEEE"/>
<path d="M10 11.3333H11.3333V12.6667H10V11.3333Z" fill="#EEEEEE"/>
<path d="M12.6667 11.3333H14.0001V12.6667H12.6667V11.3333Z" fill="#EEEEEE"/>
<path d="M15.3333 11.3333H16.6666V12.6667H15.3333V11.3333Z" fill="#EEEEEE"/>
<path d="M18 11.3333H19.3333V12.6667H18V11.3333Z" fill="#EEEEEE"/>
<path d="M18 14.6667H19.2933V16H18V14.6667Z" fill="#EEEEEE"/>
<path d="M4.66675 14.6667H6.00008V16H4.66675V14.6667Z" fill="#EEEEEE"/>
<path d="M7.41992 14.6667H16.5866V16H7.41992V14.6667Z" fill="#EEEEEE"/>
</g>
<defs>
<clipPath id="clip0_7_6090">
<rect width="24" height="24" fill="white"/>
</clipPath>
</defs>
</svg>
