<svg width="36" height="36" viewBox="0 0 36 36" fill="none" xmlns="http://www.w3.org/2000/svg">
<g clip-path="url(#clip0_605_2909)">
<path d="M25.6499 0C26.43 0.282209 26.839 0.81824 27.0233 1.65079C27.2293 2.58234 27.6016 3.47776 27.9171 4.3835C27.9518 4.48343 28.0755 4.57562 28.1798 4.62418C28.8646 4.94346 29.2173 5.47456 29.2312 6.22829C29.2377 6.59143 29.242 6.95528 29.23 7.31818C29.2059 8.04165 28.8538 8.54813 28.207 8.87303C28.0725 8.94059 27.9386 9.08815 27.8868 9.22913C27.6527 9.86557 27.4422 10.5112 27.2394 11.1584C27.2089 11.2557 27.2239 11.4413 27.286 11.4823C27.9363 11.9112 28.1534 12.5272 28.1088 13.2697C28.1053 13.3278 28.1084 13.3863 28.1084 13.4681C28.5195 13.5 28.9257 13.5066 29.3238 13.5667C31.14 13.8406 32.5342 15.4098 32.598 17.2462C32.6168 17.7848 32.5882 18.3253 32.6154 18.8629C32.6236 19.0253 32.7068 19.2233 32.8228 19.3352C35.6575 22.0686 36.6697 25.3676 35.5574 29.1386C34.4501 32.8931 31.832 35.186 27.9738 35.8571C22.6639 36.7805 17.7057 33.1233 16.968 27.7758C16.5128 24.4761 17.5686 21.6555 20.0015 19.3692C20.1698 19.2111 20.2378 19.0597 20.2444 18.8299C20.2662 18.048 20.2139 17.2445 20.3768 16.4896C20.7582 14.7215 22.3029 13.5385 24.1095 13.5045C24.3057 13.5007 24.5022 13.504 24.7359 13.504C24.7359 13.2997 24.7321 13.1273 24.7366 12.9553C24.7546 12.2297 25.1032 11.7235 25.7424 11.3885C25.8857 11.3134 26.0287 11.1596 26.0845 11.0094C26.3205 10.3737 26.5186 9.72388 26.7424 9.08322C26.8029 8.91009 26.7753 8.81767 26.6163 8.71093C26.1025 8.36585 25.8573 7.86829 25.8599 7.24851C25.8613 6.89687 25.8566 6.54522 25.8618 6.19357C25.87 5.61532 26.1065 5.14262 26.5809 4.81889C26.779 4.68354 26.802 4.57187 26.7223 4.36239C26.5652 3.94928 26.4377 3.52467 26.3182 3.16529C24.9895 3.39237 23.6841 3.8097 22.6414 2.50023C22.0503 2.7747 21.4452 3.05081 20.8468 3.34076C20.787 3.36961 20.723 3.49183 20.7364 3.55423C20.9054 4.33681 20.5789 4.92117 20.0179 5.41873C19.9837 5.44923 19.957 5.4884 19.9101 5.54283C20.1021 5.74903 20.2969 5.9482 20.4804 6.15745C21.7821 7.64332 21.7765 9.85923 20.4563 11.3266C20.0885 11.7355 19.6745 12.1028 19.3058 12.511C19.1956 12.633 19.1044 12.8312 19.1101 12.9907C19.2849 17.8584 16.1305 21.9022 11.3776 22.8863C6.17905 23.9626 0.922638 20.3073 0.135255 15.0692C0.0954049 14.8041 0.0452412 14.5407 0 14.2765V12.7294C0.0218001 12.6393 0.0536799 12.5502 0.0635251 12.4587C0.561178 7.81856 4.37339 4.19888 9.02901 3.94857C9.49009 3.92371 10.0084 4.03138 10.3975 3.85333C10.8068 3.66613 11.093 3.20939 11.4331 2.87064C13.1429 1.16801 15.498 1.16637 17.2144 2.86595C17.3098 2.96049 17.4092 3.05104 17.5449 3.1796C17.6206 3.07779 17.6644 3.00671 17.7198 2.94642C18.3109 2.30107 19.0006 2.08032 19.8391 2.43455C19.9361 2.4756 20.0904 2.43736 20.197 2.38927C20.9002 2.07187 21.5985 1.74345 22.2962 1.41339C22.3869 1.37046 22.5142 1.31322 22.5383 1.23581C22.7415 0.583653 23.2148 0.224735 23.8224 0.000234587H25.6496L25.6499 0ZM26.8582 34.8789C27.0577 34.8569 27.2192 34.8381 27.3812 34.8214C31.4853 34.3994 34.7844 30.8161 34.8481 26.6866C34.8901 23.9826 33.8805 21.7373 31.8249 19.9753C31.5814 19.7666 31.4684 19.5399 31.4766 19.2176C31.4928 18.5852 31.4937 17.9518 31.4759 17.3193C31.4353 15.8783 30.2614 14.6669 28.8287 14.6392C27.2251 14.608 25.6199 14.6092 24.0163 14.6387C22.6257 14.6643 21.4293 15.8271 21.3773 17.2117C21.3327 18.3938 21.3494 19.5789 21.3796 20.7617C21.3845 20.9508 21.5688 21.2527 21.7279 21.2977C22.1796 21.4256 22.6658 21.4999 23.1107 21.2229C24.3686 20.4403 25.7338 20.0926 27.2024 20.3167C29.8256 20.7169 31.6055 22.1992 32.3434 24.7386C33.0748 27.2555 32.3495 29.436 30.3896 31.1743C29.4827 31.9787 28.3983 32.4261 27.193 32.5842C27.0591 32.6018 26.85 32.6984 26.8261 32.7955C26.659 33.4749 26.6653 34.1606 26.8582 34.8784V34.8789ZM3.30401 19.159C3.87832 18.8026 4.33073 18.3588 4.71797 17.8359C4.8626 17.6405 4.85346 17.5178 4.70227 17.3231C3.58765 15.8874 3.16829 14.2577 3.46247 12.4676C3.92989 9.62324 6.3572 7.46128 9.19896 7.32123C12.1427 7.17626 14.7636 9.04944 15.5065 11.879C15.6248 12.3299 15.8393 12.655 16.1581 12.9565C16.563 13.3393 16.8541 13.3522 17.2425 12.9661C17.9818 12.2309 18.7219 11.4964 19.453 10.7532C20.6241 9.56272 20.6257 7.89011 19.4539 6.70427C18.4246 5.6627 17.3897 4.62677 16.3487 3.59693C15.164 2.42469 13.4973 2.42704 12.3014 3.59622C11.8743 4.01379 11.4748 4.46232 11.0241 4.85197C10.8518 5.00093 10.5747 5.07952 10.3391 5.09524C9.66403 5.14028 8.97439 5.06239 8.31054 5.16444C3.03186 5.97447 -0.150491 11.3003 1.61509 16.3348C1.98288 17.3836 2.53983 18.3203 3.30424 19.159H3.30401ZM14.6148 13.5542C14.6323 10.7591 12.3942 8.46532 9.62511 8.44022C6.81313 8.41465 4.51802 10.6578 4.4981 13.4508C4.47817 16.2482 6.71702 18.543 9.48681 18.5641C12.3025 18.5854 14.5974 16.3435 14.615 13.5542H14.6148ZM21.3632 26.4317C21.3599 29.2185 23.6168 31.4962 26.3918 31.5062C29.192 31.5163 31.4768 29.2488 31.4808 26.4553C31.485 23.6574 29.2098 21.3777 26.4154 21.3798C23.637 21.3819 21.3662 23.6523 21.363 26.4317H21.3632ZM5.90854 18.5143C5.34244 19.0497 4.81056 19.5524 4.28267 20.0516C6.14389 21.7709 9.77725 22.6832 13.0667 21.1757C16.3832 19.6561 17.965 16.3543 17.9422 13.8871C17.2575 14.4625 16.5252 14.5146 15.7299 14.0945C15.39 16.4767 14.1912 18.2326 11.9922 19.1766C9.77725 20.1274 7.67177 19.7736 5.90854 18.5143ZM25.6311 32.5973C23.3065 32.2032 21.5835 30.9575 20.6904 28.7348C19.7931 26.502 20.2052 24.4055 21.6407 22.4852C20.7514 22.233 20.3067 21.6536 20.2162 20.7748C18.1063 22.9135 17.1518 26.8159 18.9021 30.2611C20.2019 32.8199 23.7689 35.2078 25.6313 34.7773V32.5971L25.6311 32.5973ZM26.9874 6.75283C26.9874 6.95199 26.9743 7.1521 26.9904 7.35009C27.0158 7.66045 27.2537 7.87463 27.5465 7.87392C27.8385 7.87345 28.0849 7.65951 28.0999 7.34774C28.1189 6.95035 28.1191 6.55062 28.0999 6.15346C28.0847 5.8424 27.8357 5.62822 27.5444 5.62916C27.2516 5.6301 27.0153 5.84474 26.9904 6.15581C26.9745 6.35356 26.9874 6.5539 26.9876 6.75306L26.9874 6.75283ZM24.7678 1.12883C24.557 1.12883 24.3451 1.11476 24.136 1.13212C23.8259 1.15769 23.6128 1.3972 23.6138 1.68997C23.6147 1.98344 23.8283 2.22834 24.1398 2.24265C24.5369 2.26095 24.9363 2.26119 25.3332 2.24219C25.6428 2.22741 25.8578 1.97781 25.8566 1.68598C25.8554 1.39439 25.6398 1.15769 25.3294 1.13141C25.1435 1.1157 24.9551 1.1286 24.7678 1.1286V1.12883ZM26.9743 13.4855C26.9679 13.1078 27.1105 12.6907 26.6972 12.4751C26.5392 12.3928 26.2439 12.4127 26.0927 12.5112C25.7265 12.7501 25.8847 13.1432 25.8686 13.4852H26.9743V13.4855ZM19.1199 4.71567C19.3541 4.46232 19.7481 4.27817 19.6253 3.8477C19.5754 3.67293 19.3646 3.46392 19.19 3.42099C18.7636 3.31566 18.5789 3.70179 18.3152 3.9528C18.5854 4.20897 18.8372 4.44777 19.1199 4.71591V4.71567Z" fill="#00CCB8"/>
<path d="M25.8601 17.3978C25.8601 17.0699 25.8566 16.7424 25.8611 16.4149C25.8667 16.0046 26.0877 15.7519 26.4283 15.7564C26.7664 15.7606 26.9785 16.0142 26.9834 16.4287C26.9874 16.756 26.9841 17.0832 26.9841 17.4105C27.0146 17.391 27.0451 17.3713 27.0758 17.3518C27.2293 17.5369 27.4424 17.6997 27.5221 17.9125C27.6395 18.2268 27.3484 18.5468 26.9757 18.5623C26.6367 18.5764 26.2968 18.5696 25.9574 18.5654C25.5889 18.5609 25.3503 18.3967 25.3102 18.1016C25.2636 17.7567 25.4382 17.5477 25.7603 17.4475C25.7912 17.4379 25.8189 17.4185 25.8599 17.3976L25.8601 17.3978Z" fill="#00CCB8"/>
<path d="M16.3181 7.46989C16.3774 7.60407 16.4198 7.67445 16.44 7.75069C16.5094 8.01249 16.4571 8.24262 16.2211 8.39792C15.9871 8.55204 15.7459 8.53304 15.5443 8.3456C15.2536 8.07536 14.9719 7.79385 14.7033 7.50156C14.5162 7.29817 14.5047 7.0549 14.662 6.82431C14.8207 6.59159 15.0673 6.50925 15.3078 6.62467C15.522 6.72742 15.621 6.64649 15.7485 6.51019C15.9318 6.31384 16.1193 6.11961 16.3207 5.94249C16.5788 5.71541 16.8875 5.72761 17.1071 5.95188C17.3265 6.17567 17.3394 6.48861 17.1017 6.73798C16.853 6.99907 16.5748 7.23202 16.3176 7.46966L16.3181 7.46989Z" fill="#00CCB8"/>
</g>
<defs>
<clipPath id="clip0_605_2909">
<rect width="36" height="36" fill="white"/>
</clipPath>
</defs>
</svg>
