<svg width="24" height="24" viewBox="0 0 24 24" fill="none" xmlns="http://www.w3.org/2000/svg">
<path d="M11.9999 18.6666C15.6818 18.6666 18.6666 15.6819 18.6666 12C18.6666 8.31808 15.6818 5.33331 11.9999 5.33331C8.31802 5.33331 5.33325 8.31808 5.33325 12C5.33325 15.6819 8.31802 18.6666 11.9999 18.6666Z" stroke="#00CCB8" stroke-linecap="round" stroke-linejoin="round"/>
<path d="M14.6666 9.33331H10.6666C10.313 9.33331 9.97383 9.47379 9.72378 9.72384C9.47373 9.97389 9.33325 10.313 9.33325 10.6666C9.33325 11.0203 9.47373 11.3594 9.72378 11.6095C9.97383 11.8595 10.313 12 10.6666 12H13.3333C13.6869 12 14.026 12.1405 14.2761 12.3905C14.5261 12.6406 14.6666 12.9797 14.6666 13.3333C14.6666 13.6869 14.5261 14.0261 14.2761 14.2761C14.026 14.5262 13.6869 14.6666 13.3333 14.6666H9.33325" stroke="#00CCB8" stroke-linecap="round" stroke-linejoin="round"/>
<path d="M12 16V8" stroke="#00CCB8" stroke-linecap="round" stroke-linejoin="round"/>
</svg>
