<svg width="36" height="36" viewBox="0 0 36 36" fill="none" xmlns="http://www.w3.org/2000/svg">
<path d="M33.75 15.75H32.1525L28.3008 9.00845C28.104 8.66414 27.8197 8.37797 27.4766 8.17892C27.1336 7.97988 26.7441 7.87503 26.3475 7.87501H23.2622L21.5747 3.6647C21.409 3.24669 21.1213 2.88822 20.7492 2.63591C20.377 2.3836 19.9375 2.24914 19.4878 2.25001H16.5122C16.0621 2.24857 15.6219 2.38277 15.2492 2.63512C14.8764 2.88746 14.5884 3.24624 14.4225 3.6647L12.7378 7.87501H9.6525C9.25591 7.87503 8.86638 7.97988 8.52336 8.17892C8.18034 8.37797 7.89602 8.66414 7.69922 9.00845L3.8475 15.75H2.25C1.95163 15.75 1.66548 15.8685 1.4545 16.0795C1.24353 16.2905 1.125 16.5766 1.125 16.875C1.125 17.1734 1.24353 17.4595 1.4545 17.6705C1.66548 17.8815 1.95163 18 2.25 18H3.375V29.25C3.375 29.8467 3.61205 30.419 4.03401 30.841C4.45597 31.263 5.02826 31.5 5.625 31.5H9C9.59674 31.5 10.169 31.263 10.591 30.841C11.0129 30.419 11.25 29.8467 11.25 29.25V27H24.75V29.25C24.75 29.8467 24.9871 30.419 25.409 30.841C25.831 31.263 26.4033 31.5 27 31.5H30.375C30.9717 31.5 31.544 31.263 31.966 30.841C32.3879 30.419 32.625 29.8467 32.625 29.25V18H33.75C34.0484 18 34.3345 17.8815 34.5455 17.6705C34.7565 17.4595 34.875 17.1734 34.875 16.875C34.875 16.5766 34.7565 16.2905 34.5455 16.0795C34.3345 15.8685 34.0484 15.75 33.75 15.75ZM16.5122 4.50001H19.4878L20.8378 7.87501H15.1622L16.5122 4.50001ZM9.6525 10.125H26.3475L29.5608 15.75H6.43922L9.6525 10.125ZM9 29.25H5.625V27H9V29.25ZM27 29.25V27H30.375V29.25H27ZM30.375 24.75H5.625V18H30.375V24.75ZM7.875 21.375C7.875 21.0766 7.99353 20.7905 8.2045 20.5795C8.41548 20.3685 8.70163 20.25 9 20.25H11.25C11.5484 20.25 11.8345 20.3685 12.0455 20.5795C12.2565 20.7905 12.375 21.0766 12.375 21.375C12.375 21.6734 12.2565 21.9595 12.0455 22.1705C11.8345 22.3815 11.5484 22.5 11.25 22.5H9C8.70163 22.5 8.41548 22.3815 8.2045 22.1705C7.99353 21.9595 7.875 21.6734 7.875 21.375ZM23.625 21.375C23.625 21.0766 23.7435 20.7905 23.9545 20.5795C24.1655 20.3685 24.4516 20.25 24.75 20.25H27C27.2984 20.25 27.5845 20.3685 27.7955 20.5795C28.0065 20.7905 28.125 21.0766 28.125 21.375C28.125 21.6734 28.0065 21.9595 27.7955 22.1705C27.5845 22.3815 27.2984 22.5 27 22.5H24.75C24.4516 22.5 24.1655 22.3815 23.9545 22.1705C23.7435 21.9595 23.625 21.6734 23.625 21.375Z" fill="#FDB813"/>
</svg>
