<svg width="36" height="36" viewBox="0 0 36 36" fill="none" xmlns="http://www.w3.org/2000/svg">
<path d="M28.5 21V11.25L21 6L13.5 11.25V13.5H10.5V9.75L21 2.25L31.5 9.75V21H28.5ZM21.75 12H23.25V10.5H21.75V12ZM18.75 12H20.25V10.5H18.75V12ZM21.75 15H23.25V13.5H21.75V15ZM18.75 15H20.25V13.5H18.75V15ZM10.5 27.75L20.925 30.6L29.85 27.825C29.725 27.6 29.5435 27.406 29.3055 27.243C29.0675 27.08 28.799 26.999 28.5 27H20.925C20.25 27 19.7125 26.975 19.3125 26.925C18.9125 26.875 18.5 26.775 18.075 26.625L14.5875 25.4625L15.4125 22.5375L18.45 23.55C18.875 23.675 19.375 23.775 19.95 23.85C20.525 23.925 21.375 23.975 22.5 24C22.5 23.725 22.419 23.4625 22.257 23.2125C22.095 22.9625 21.901 22.8 21.675 22.725L12.9 19.5H10.5V27.75ZM1.5 33V16.5H12.9C13.075 16.5 13.25 16.519 13.425 16.557C13.6 16.595 13.7625 16.6385 13.9125 16.6875L22.725 19.95C23.55 20.25 24.219 20.775 24.732 21.525C25.245 22.275 25.501 23.1 25.5 24H28.5C29.75 24 30.8125 24.4125 31.6875 25.2375C32.5625 26.0625 33 27.15 33 28.5V30L21 33.75L10.5 30.825V33H1.5ZM4.5 30H7.5V19.5H4.5V30Z" fill="#B5B5B5"/>
</svg>
