<svg width="36" height="36" viewBox="0 0 36 36" fill="none" xmlns="http://www.w3.org/2000/svg">
<path d="M15.7497 11.6263C15.7494 10.1478 16.1292 8.694 16.8526 7.40452C17.576 6.11505 18.6188 5.03319 19.8808 4.26281C21.1427 3.49243 22.5816 3.0594 24.0591 3.00529C25.5367 2.95118 27.0033 3.27781 28.3182 3.95383C28.4757 4.03492 28.6118 4.15204 28.7154 4.29566C28.819 4.43928 28.8873 4.60533 28.9146 4.78032C28.942 4.9553 28.9276 5.13426 28.8727 5.30265C28.8178 5.47103 28.724 5.62407 28.5987 5.74933L24.4497 9.89983L26.0397 11.4898L30.2097 7.32283C30.3343 7.19873 30.4862 7.10555 30.6533 7.05077C30.8203 6.99599 30.9979 6.98113 31.1718 7.00738C31.3456 7.03364 31.5109 7.10027 31.6543 7.20194C31.7978 7.30361 31.9154 7.43749 31.9977 7.59283C32.7751 9.05949 33.1127 10.7193 32.97 12.3731C32.8273 14.0269 32.2105 15.6044 31.1935 16.9162C30.1765 18.2281 28.8025 19.2187 27.2365 19.769C25.6704 20.3193 23.9789 20.4061 22.3647 20.0188L11.3172 31.4458C10.8996 31.8779 10.401 32.2235 9.84986 32.4629C9.29869 32.7023 8.70577 32.8307 8.10495 32.841C7.50413 32.8512 6.90718 32.743 6.34818 32.5226C5.78918 32.3021 5.27908 31.9737 4.84699 31.5561C3.97437 30.7127 3.47251 29.5572 3.45184 28.3438C3.43116 27.1304 3.89336 25.9585 4.73674 25.0858L15.9492 13.4848C15.8159 12.8748 15.749 12.2507 15.7497 11.6263ZM24.3747 5.25283C23.3785 5.25252 22.3961 5.48568 21.5063 5.93362C20.6165 6.38155 19.8441 7.03178 19.2509 7.83216C18.6578 8.63253 18.2605 9.56078 18.0909 10.5424C17.9212 11.5241 17.9841 12.5318 18.2742 13.4848C18.3326 13.677 18.3385 13.8812 18.2913 14.0764C18.2441 14.2716 18.1455 14.4506 18.0057 14.5948L6.35524 26.6488C6.143 26.8685 5.97609 27.1278 5.86404 27.4119C5.752 27.696 5.69702 27.9995 5.70225 28.3049C5.70747 28.6102 5.77279 28.9116 5.89449 29.1918C6.01618 29.4719 6.19186 29.7253 6.41149 29.9376C6.63113 30.1498 6.89042 30.3167 7.17456 30.4288C7.4587 30.5408 7.76213 30.5958 8.06752 30.5906C8.37291 30.5854 8.67428 30.52 8.95442 30.3983C9.23456 30.2766 9.488 30.101 9.70024 29.8813L21.2142 17.9713C21.3611 17.819 21.5479 17.7112 21.7533 17.6602C21.9587 17.6093 22.1742 17.6173 22.3752 17.6833C23.4541 18.04 24.6088 18.1019 25.7196 17.8624C26.8304 17.623 27.857 17.091 28.6932 16.3216C29.5293 15.5521 30.1446 14.5731 30.4754 13.486C30.8061 12.3989 30.8402 11.2431 30.5742 10.1383L26.8362 13.8778C26.6253 14.0885 26.3394 14.2068 26.0412 14.2068C25.7431 14.2068 25.4572 14.0885 25.2462 13.8778L22.0632 10.6948C21.8526 10.4839 21.7342 10.198 21.7342 9.89983C21.7342 9.6017 21.8526 9.31576 22.0632 9.10483L25.7637 5.40433C25.3077 5.3033 24.8419 5.2525 24.3747 5.25283Z" fill="#FA5A00"/>
</svg>
