<svg width="24" height="24" viewBox="0 0 24 24" fill="none" xmlns="http://www.w3.org/2000/svg">
<path d="M17.3333 10.6666V7.99996C17.3333 7.64634 17.1928 7.3072 16.9427 7.05715C16.6927 6.8071 16.3535 6.66663 15.9999 6.66663H6.66659C6.31296 6.66663 5.97382 6.8071 5.72378 7.05715C5.47373 7.3072 5.33325 7.64634 5.33325 7.99996V17.3333C5.33325 18.0666 5.93325 18.6666 6.66659 18.6666H11.3333" stroke="#00CCB8" stroke-linecap="round" stroke-linejoin="round"/>
<path d="M14 5.33331V7.99998" stroke="#00CCB8" stroke-linecap="round" stroke-linejoin="round"/>
<path d="M8.6665 5.33331V7.99998" stroke="#00CCB8" stroke-linecap="round" stroke-linejoin="round"/>
<path d="M5.33325 10.6666H17.3333" stroke="#00CCB8" stroke-linecap="round" stroke-linejoin="round"/>
<path d="M17.5268 13.8C17.2996 13.5739 17.0105 13.4203 16.696 13.3586C16.3816 13.2969 16.0559 13.3299 15.7601 13.4533C15.5601 13.5333 15.3801 13.6533 15.2268 13.8066L15.0001 14.0333L14.7668 13.8066C14.5404 13.5795 14.2516 13.4246 13.9371 13.3617C13.6226 13.2988 13.2965 13.3307 13.0001 13.4533C12.8001 13.5333 12.6268 13.6533 12.4734 13.8066C11.8401 14.4333 11.8068 15.4933 12.6068 16.3L15.0001 18.6666L17.4001 16.3C18.2001 15.4933 18.1601 14.4333 17.5268 13.8066V13.8Z" stroke="#00CCB8" stroke-linecap="round" stroke-linejoin="round"/>
</svg>
