<svg width="20" height="20" viewBox="0 0 20 20" fill="none" xmlns="http://www.w3.org/2000/svg">
<g clip-path="url(#clip0_244_6650)">
<path d="M0.0101979 20.0001C0.471926 19.4551 0.930617 18.9075 1.3956 18.3653C3.42369 16.0017 5.45352 13.6395 7.48247 11.2765C7.52457 11.2274 7.56406 11.1761 7.61201 11.1169C5.0788 7.42306 2.54732 3.73158 0 0.0172712C0.0729045 0.0118365 0.120857 0.00509742 0.168592 0.00509742C1.99402 0.00466264 3.81946 0.00640175 5.64467 0.00118442C5.77443 0.000749639 5.83974 0.0494448 5.9083 0.149661C7.50873 2.48877 9.11241 4.82548 10.7157 7.16263C10.7554 7.22045 10.797 7.27654 10.8504 7.3511C11.183 6.9648 11.5042 6.59242 11.8244 6.21938C13.5483 4.21157 15.2737 2.20486 16.9924 0.192704C17.1148 0.0494448 17.2369 -0.00468509 17.4218 0.000314861C17.8931 0.0129234 18.365 0.00444525 18.8827 0.00444525C16.4426 2.84659 14.0313 5.65525 11.6161 8.46805C11.6578 8.53174 11.6921 8.58609 11.7283 8.63913C14.2832 12.3652 16.8381 16.091 19.3926 19.8175C19.4323 19.8755 19.4642 19.939 19.4998 20.0001H13.6917C13.6689 19.9612 13.6485 19.9205 13.6232 19.8836C11.9073 17.3803 10.191 14.8773 8.47428 12.3747C8.44607 12.3337 8.41136 12.2974 8.3723 12.25C8.31176 12.3187 8.25969 12.3763 8.20913 12.4352C6.82438 14.0478 5.43898 15.6599 4.05531 17.2736C3.27701 18.1812 2.50154 19.0912 1.72497 20.0003H0.0101979V20.0001ZM2.34097 1.30052C2.39934 1.3903 2.43275 1.44508 2.46942 1.49769C6.44836 7.20045 10.4279 12.9028 14.4043 18.6075C14.4846 18.7227 14.5694 18.7621 14.7072 18.761C15.4475 18.7542 16.1878 18.7579 16.9282 18.7573C16.99 18.7573 17.0518 18.7512 17.1469 18.746C17.0807 18.6488 17.0319 18.5751 16.9813 18.5029C13.077 12.9065 9.16969 7.31219 5.27538 1.70877C5.06339 1.40378 4.85683 1.27095 4.47929 1.2903C3.78127 1.32574 3.08 1.30052 2.34097 1.30052Z" fill="#EEEEEE"/>
</g>
<defs>
<clipPath id="clip0_244_6650">
<rect width="19.5" height="20" fill="white"/>
</clipPath>
</defs>
</svg>
