<svg width="20" height="20" viewBox="0 0 20 20" fill="none" xmlns="http://www.w3.org/2000/svg">
<path d="M7.91671 9.16671C9.52504 9.16671 10.8334 10.475 10.8334 12.0834C10.8334 13.6917 9.52504 15 7.91671 15C6.30837 15 5.00004 13.6917 5.00004 12.0834C5.00004 10.475 6.30837 9.16671 7.91671 9.16671ZM7.91671 7.50004C5.38337 7.50004 3.33337 9.55004 3.33337 12.0834C3.33337 14.6167 5.38337 16.6667 7.91671 16.6667C10.45 16.6667 12.5 14.6167 12.5 12.0834C12.5 11.1167 12.2 10.225 11.6917 9.48337L15 6.18337V8.33337H16.6667V3.33337H11.6667V5.00004H13.8167L10.5084 8.30837C9.77504 7.80004 8.88337 7.50004 7.91671 7.50004Z" fill="#EEEEEE"/>
</svg>
