<svg width="20" height="20" viewBox="0 0 20 20" fill="none" xmlns="http://www.w3.org/2000/svg">
<path d="M9.16663 17.5V15.8334H7.49996V14.1667H9.16663V12.4167C8.0694 12.2223 7.16996 11.6978 6.46829 10.8434C5.76663 9.98893 5.41607 8.99949 5.41663 7.87504C5.41663 6.61115 5.86468 5.53837 6.76079 4.65671C7.6569 3.77504 8.73663 3.33393 9.99996 3.33337C11.2638 3.33337 12.3438 3.77448 13.24 4.65671C14.1361 5.53893 14.5838 6.61171 14.5833 7.87504C14.5833 9.00004 14.2325 9.98976 13.5308 10.8442C12.8291 11.6987 11.93 12.2228 10.8333 12.4167V14.1667H12.5V15.8334H10.8333V17.5H9.16663ZM9.99996 10.8334C10.8055 10.8334 11.493 10.5487 12.0625 9.97921C12.6319 9.40976 12.9166 8.72226 12.9166 7.91671C12.9166 7.11115 12.6319 6.42365 12.0625 5.85421C11.493 5.28476 10.8055 5.00004 9.99996 5.00004C9.1944 5.00004 8.5069 5.28476 7.93746 5.85421C7.36802 6.42365 7.08329 7.11115 7.08329 7.91671C7.08329 8.72226 7.36802 9.40976 7.93746 9.97921C8.5069 10.5487 9.1944 10.8334 9.99996 10.8334Z" fill="#EEEEEE"/>
</svg>
