<svg width="24" height="24" viewBox="0 0 24 24" fill="none" xmlns="http://www.w3.org/2000/svg">
<g clip-path="url(#clip0_246_145)">
<path d="M13.433 2.75L22.067 17.704C22.1986 17.932 22.2679 18.1907 22.2679 18.454C22.2679 18.7173 22.1986 18.976 22.067 19.204C21.9353 19.432 21.746 19.6214 21.518 19.753C21.2899 19.8847 21.0313 19.954 20.768 19.954H3.49996C3.23666 19.954 2.978 19.8847 2.74998 19.753C2.52195 19.6214 2.3326 19.432 2.20095 19.204C2.0693 18.976 2 18.7173 2 18.454C2 18.1907 2.06931 17.932 2.20096 17.704L10.835 2.75C11.412 1.75 12.855 1.75 13.433 2.75ZM12.134 14.602C11.8687 14.602 11.6144 14.7074 11.4269 14.8949C11.2393 15.0824 11.134 15.3368 11.134 15.602C11.134 15.8672 11.2393 16.1216 11.4269 16.3091C11.6144 16.4966 11.8687 16.602 12.134 16.602C12.3992 16.602 12.6535 16.4966 12.8411 16.3091C13.0286 16.1216 13.134 15.8672 13.134 15.602C13.134 15.3368 13.0286 15.0824 12.8411 14.8949C12.6535 14.7074 12.3992 14.602 12.134 14.602ZM12.134 7.602C11.889 7.60203 11.6526 7.69196 11.4696 7.85472C11.2866 8.01747 11.1696 8.24175 11.141 8.485L11.134 8.602V12.602C11.1342 12.8569 11.2318 13.102 11.4068 13.2874C11.5818 13.4727 11.8209 13.5842 12.0754 13.5992C12.3298 13.6141 12.5803 13.5313 12.7758 13.3677C12.9712 13.2041 13.0969 12.9721 13.127 12.719L13.134 12.602V8.602C13.134 8.33678 13.0286 8.08243 12.8411 7.89489C12.6535 7.70736 12.3992 7.602 12.134 7.602Z" fill="#ED2B2A"/>
</g>
<defs>
<clipPath id="clip0_246_145">
<rect width="24" height="24" fill="white"/>
</clipPath>
</defs>
</svg>
