<svg width="21" height="16" viewBox="0 0 21 16" fill="none" xmlns="http://www.w3.org/2000/svg">
<path d="M17.7682 1.32998C16.4382 0.709985 14.9982 0.259985 13.4982 -1.5037e-05C13.485 -0.00043564 13.4719 0.00203244 13.4598 0.00721572C13.4477 0.012399 13.4369 0.0201716 13.4282 0.0299852C13.2482 0.359985 13.0382 0.789985 12.8982 1.11998C11.3072 0.879985 9.68916 0.879985 8.09816 1.11998C7.95816 0.779985 7.74816 0.359985 7.55816 0.0299852C7.54816 0.00998517 7.51816 -1.5037e-05 7.48816 -1.5037e-05C5.98816 0.259985 4.55816 0.709985 3.21816 1.32998C3.20816 1.32998 3.19816 1.33998 3.18816 1.34998C0.468164 5.41998 -0.281836 9.37998 0.0881641 13.3C0.0881641 13.32 0.0981641 13.34 0.118164 13.35C1.91816 14.67 3.64816 15.47 5.35816 16C5.38816 16.01 5.41816 16 5.42816 15.98C5.82816 15.43 6.18816 14.85 6.49816 14.24C6.51816 14.2 6.49816 14.16 6.45816 14.15C5.88816 13.93 5.34816 13.67 4.81816 13.37C4.77816 13.35 4.77816 13.29 4.80816 13.26C4.91816 13.18 5.02816 13.09 5.13816 13.01C5.15816 12.99 5.18816 12.99 5.20816 13C8.64816 14.57 12.3582 14.57 15.7582 13C15.7782 12.99 15.8082 12.99 15.8282 13.01C15.9382 13.1 16.0482 13.18 16.1582 13.27C16.1982 13.3 16.1982 13.36 16.1482 13.38C15.6282 13.69 15.0782 13.94 14.5082 14.16C14.4682 14.17 14.4582 14.22 14.4682 14.25C14.7882 14.86 15.1482 15.44 15.5382 15.99C15.5682 16 15.5982 16.01 15.6282 16C17.3482 15.47 19.0782 14.67 20.8782 13.35C20.8982 13.34 20.9082 13.32 20.9082 13.3C21.3482 8.76998 20.1782 4.83998 17.8082 1.34998C17.7982 1.33998 17.7882 1.32998 17.7682 1.32998ZM7.01816 10.91C5.98816 10.91 5.12816 9.95998 5.12816 8.78998C5.12816 7.61998 5.96816 6.66998 7.01816 6.66998C8.07817 6.66998 8.91816 7.62998 8.90816 8.78998C8.90816 9.95998 8.06816 10.91 7.01816 10.91ZM13.9882 10.91C12.9582 10.91 12.0982 9.95998 12.0982 8.78998C12.0982 7.61998 12.9382 6.66998 13.9882 6.66998C15.0482 6.66998 15.8882 7.62998 15.8782 8.78998C15.8782 9.95998 15.0482 10.91 13.9882 10.91Z" fill="#EEEEEE"/>
</svg>
